<?xml version="1.0" encoding="utf-8"?>
<!-- Generator: Adobe Illustrator 21.1.0, SVG Export Plug-In . SVG Version: 6.00 Build 0)  -->
<svg version="1.1" id="內容" xmlns="http://www.w3.org/2000/svg" xmlns:xlink="http://www.w3.org/1999/xlink" x="0px" y="0px"
	 viewBox="0 0 184.3 50.9" style="enable-background:new 0 0 184.3 50.9;" xml:space="preserve">
<style type="text/css">
	.st0{fill:none;}
	.st1{fill:#0099D9;}
</style>
<g>
	<circle class="st0" cx="36.4" cy="34.9" r="2"/>
	<rect x="108.7" y="40.9" class="st0" width="1.2" height="0.4"/>
	<rect x="99.4" y="39.8" class="st0" width="0.7" height="0.5"/>
	<rect x="108.7" y="42.1" class="st0" width="1.2" height="0.4"/>
	<rect x="99.4" y="41" class="st0" width="0.7" height="0.5"/>
	<path class="st0" d="M76.9,27.7c-0.1,0-0.2,0-0.3,0c-0.1,0-0.2,0-0.3,0c-0.1,0-0.2,0-0.3,0.1c-0.1,0-0.2,0.1-0.2,0.1
		c-0.1,0.1-0.1,0.1-0.2,0.2c0,0.1-0.1,0.2-0.1,0.3c0,0.1,0,0.2,0.1,0.3c0,0.1,0.1,0.1,0.2,0.2c0.1,0,0.2,0.1,0.2,0.1
		c0.1,0,0.2,0,0.3,0c0.3,0,0.4,0,0.6-0.1c0.1-0.1,0.2-0.2,0.3-0.3c0.1-0.1,0.1-0.2,0.1-0.4c0-0.1,0-0.2,0-0.3v-0.5
		c-0.1,0-0.1,0.1-0.2,0.1C77.1,27.6,77,27.6,76.9,27.7z"/>
	<rect x="116.5" y="42.5" class="st0" width="3.3" height="0.4"/>
	<rect x="73.8" y="39.5" class="st0" width="1.1" height="1.3"/>
	<path class="st0" d="M70.7,26c-0.1,0.1-0.2,0.2-0.3,0.3c-0.1,0.1-0.1,0.2-0.2,0.3c0,0.1-0.1,0.2-0.1,0.3h2.1
		c-0.1-0.3-0.2-0.6-0.3-0.7c-0.2-0.2-0.4-0.3-0.7-0.3C71,25.9,70.8,26,70.7,26z"/>
	<rect x="67.7" y="39.7" class="st0" width="0.9" height="1.9"/>
	<path class="st0" d="M76.5,43.1h3.3c-0.6-0.3-1.2-0.6-1.7-1C77.7,42.5,77.1,42.8,76.5,43.1z"/>
	<rect x="77.3" y="43.9" class="st0" width="1.8" height="1.4"/>
	<path class="st0" d="M79,39.9h-1.5L77.4,40c0.2,0.3,0.4,0.7,0.7,1C78.5,40.6,78.8,40.3,79,39.9z"/>
	<rect x="88.4" y="40" class="st0" width="1.3" height="4.9"/>
	<path class="st0" d="M65.3,41.4h-1.5v0.5c0.5-0.1,1.1-0.1,1.5-0.2V41.4z"/>
	<rect x="63.8" y="40.4" class="st0" width="1.5" height="0.4"/>
	<rect x="63.8" y="39.4" class="st0" width="1.5" height="0.4"/>
	<polygon class="st0" points="105.3,41.4 107.9,41.4 107.9,40.9 105.9,40.9 105.9,40.2 107.9,40.2 107.9,39.7 105.3,39.7 	"/>
	<path class="st0" d="M125.2,26.9h2.1c-0.1-0.3-0.2-0.6-0.3-0.7c-0.2-0.2-0.4-0.3-0.7-0.3c-0.2,0-0.4,0-0.5,0.1
		c-0.1,0.1-0.2,0.2-0.3,0.3c-0.1,0.1-0.1,0.2-0.2,0.3C125.3,26.7,125.3,26.8,125.2,26.9z"/>
	<path class="st0" d="M140.7,26.2c-0.2-0.2-0.4-0.3-0.7-0.3c-0.2,0-0.4,0-0.5,0.1c-0.1,0.1-0.2,0.2-0.3,0.3
		c-0.1,0.1-0.1,0.2-0.2,0.3c0,0.1-0.1,0.2-0.1,0.3h2.1C140.9,26.6,140.8,26.4,140.7,26.2z"/>
	<path class="st0" d="M164.5,26.2c-0.2-0.2-0.4-0.3-0.7-0.3c-0.2,0-0.4,0-0.5,0.1c-0.1,0.1-0.2,0.2-0.3,0.3
		c-0.1,0.1-0.1,0.2-0.2,0.3c0,0.1-0.1,0.2-0.1,0.3h2.1C164.7,26.6,164.6,26.4,164.5,26.2z"/>
	<rect x="139.3" y="40.6" class="st0" width="2.2" height="2.4"/>
	<rect x="136.2" y="40.6" class="st0" width="2.2" height="2.4"/>
	<path class="st0" d="M178.7,26.2c-0.2-0.2-0.4-0.3-0.7-0.3c-0.2,0-0.4,0-0.5,0.1c-0.1,0.1-0.2,0.2-0.3,0.3
		c-0.1,0.1-0.1,0.2-0.2,0.3c0,0.1-0.1,0.2-0.1,0.3h2.1C179,26.6,178.9,26.4,178.7,26.2z"/>
	<rect x="130.3" y="41.2" class="st0" width="0.9" height="0.9"/>
	<path class="st0" d="M103.6,28.9c0.1,0,0.2,0.1,0.3,0.1c0.1,0,0.2,0,0.3,0c0.3,0,0.4,0,0.6-0.1c0.1-0.1,0.2-0.2,0.3-0.3
		c0.1-0.1,0.1-0.2,0.1-0.4c0-0.1,0-0.2,0-0.3v-0.5c-0.1,0-0.1,0.1-0.2,0.1c-0.1,0-0.2,0-0.3,0.1c-0.1,0-0.2,0-0.3,0
		c-0.1,0-0.2,0-0.3,0c-0.1,0-0.2,0-0.3,0.1c-0.1,0-0.2,0.1-0.2,0.1c-0.1,0.1-0.1,0.1-0.2,0.2c0,0.1-0.1,0.2-0.1,0.3
		c0,0.1,0,0.2,0.1,0.3C103.5,28.8,103.5,28.8,103.6,28.9z"/>
	<rect x="130.3" y="39.5" class="st0" width="0.9" height="0.9"/>
	<path class="st0" d="M121.7,26.8c0-0.2-0.1-0.3-0.2-0.5c-0.1-0.1-0.2-0.2-0.3-0.3c-0.1-0.1-0.3-0.1-0.5-0.1c-0.2,0-0.3,0-0.5,0.1
		c-0.1,0.1-0.2,0.2-0.3,0.3c-0.1,0.1-0.1,0.3-0.2,0.4c0,0.2-0.1,0.3-0.1,0.5c0,0.2,0,0.3,0,0.5c0,0.2,0.1,0.3,0.2,0.4
		c0.1,0.1,0.2,0.2,0.3,0.3c0.1,0.1,0.3,0.1,0.5,0.1c0.2,0,0.3,0,0.5-0.1c0.1-0.1,0.3-0.2,0.3-0.3c0.1-0.1,0.2-0.3,0.2-0.4
		c0-0.2,0.1-0.3,0.1-0.5C121.8,27.2,121.7,27,121.7,26.8z"/>
	<path class="st0" d="M115.6,27.7c-0.1,0-0.2,0-0.3,0c-0.1,0-0.2,0-0.3,0c-0.1,0-0.2,0-0.3,0.1c-0.1,0-0.2,0.1-0.2,0.1
		c-0.1,0.1-0.1,0.1-0.2,0.2c0,0.1-0.1,0.2-0.1,0.3c0,0.1,0,0.2,0.1,0.3c0,0.1,0.1,0.1,0.2,0.2c0.1,0,0.2,0.1,0.2,0.1
		c0.1,0,0.2,0,0.3,0c0.3,0,0.4,0,0.6-0.1c0.1-0.1,0.2-0.2,0.3-0.3c0.1-0.1,0.1-0.2,0.1-0.4c0-0.1,0-0.2,0-0.3v-0.5
		c-0.1,0-0.1,0.1-0.2,0.1C115.8,27.6,115.7,27.6,115.6,27.7z"/>
	<rect x="116.5" y="44.8" class="st0" width="3.7" height="0.6"/>
	<rect x="128.5" y="39.5" class="st0" width="0.9" height="0.9"/>
	<rect x="128.5" y="41.2" class="st0" width="0.9" height="0.9"/>
	<polygon class="st1" points="67.8,29.7 67.8,23.4 66.4,23.4 66.4,25.8 63.8,25.8 63.8,23.4 62.4,23.4 62.4,29.7 63.8,29.7 63.8,27 
		66.4,27 66.4,29.7 	"/>
	<path class="st1" d="M70.3,25.2c-0.3,0.1-0.5,0.3-0.7,0.5c-0.2,0.2-0.4,0.5-0.5,0.8c-0.1,0.3-0.2,0.6-0.2,1c0,0.4,0.1,0.7,0.2,1
		c0.1,0.3,0.3,0.6,0.5,0.8c0.2,0.2,0.4,0.4,0.7,0.5c0.3,0.1,0.6,0.2,1,0.2c0.5,0,1-0.1,1.3-0.4c0.4-0.2,0.6-0.6,0.8-1.2h-1.1
		c0,0.1-0.2,0.3-0.3,0.4c-0.2,0.1-0.4,0.2-0.7,0.2c-0.4,0-0.6-0.1-0.8-0.3c-0.2-0.2-0.3-0.5-0.3-0.9h3.3c0-0.4,0-0.7-0.1-1
		c-0.1-0.3-0.2-0.6-0.4-0.9c-0.2-0.3-0.4-0.5-0.7-0.6c-0.3-0.2-0.6-0.2-1-0.2C70.9,25,70.6,25.1,70.3,25.2z M72.2,26.9h-2.1
		c0-0.1,0-0.2,0.1-0.3c0-0.1,0.1-0.2,0.2-0.3c0.1-0.1,0.2-0.2,0.3-0.3c0.1-0.1,0.3-0.1,0.5-0.1c0.3,0,0.5,0.1,0.7,0.3
		C72.1,26.4,72.2,26.6,72.2,26.9z"/>
	<path class="st1" d="M76.9,26.9c-0.1,0-0.3,0.1-0.5,0.1c-0.2,0-0.4,0-0.6,0.1c-0.2,0-0.4,0.1-0.6,0.1c-0.2,0.1-0.4,0.1-0.5,0.2
		c-0.1,0.1-0.3,0.2-0.4,0.4c-0.1,0.2-0.1,0.4-0.1,0.6c0,0.2,0,0.4,0.1,0.6c0.1,0.2,0.2,0.3,0.3,0.4c0.1,0.1,0.3,0.2,0.5,0.3
		c0.2,0.1,0.4,0.1,0.6,0.1c0.3,0,0.6,0,0.8-0.1c0.3-0.1,0.5-0.2,0.7-0.4c0,0.1,0,0.2,0,0.2c0,0.1,0,0.1,0.1,0.2h1.3
		c-0.1-0.1-0.1-0.2-0.1-0.4c0-0.2,0-0.4,0-0.6v-2.4c0-0.3-0.1-0.5-0.2-0.7c-0.1-0.2-0.3-0.3-0.5-0.4c-0.2-0.1-0.4-0.2-0.7-0.2
		c-0.2,0-0.5,0-0.7,0c-0.3,0-0.5,0-0.8,0.1c-0.3,0.1-0.5,0.1-0.7,0.3c-0.2,0.1-0.4,0.3-0.5,0.5c-0.1,0.2-0.2,0.4-0.2,0.7h1.3
		c0-0.3,0.1-0.4,0.3-0.5c0.1-0.1,0.3-0.2,0.6-0.2c0.1,0,0.2,0,0.3,0c0.1,0,0.2,0,0.3,0.1c0.1,0,0.1,0.1,0.2,0.2
		c0,0.1,0.1,0.2,0.1,0.3c0,0.1,0,0.2-0.1,0.3C77.1,26.8,77,26.9,76.9,26.9z M77.3,27.9c0,0.1,0,0.2,0,0.3c0,0.1-0.1,0.2-0.1,0.4
		c-0.1,0.1-0.2,0.2-0.3,0.3C76.8,29,76.6,29,76.3,29c-0.1,0-0.2,0-0.3,0c-0.1,0-0.2,0-0.2-0.1c-0.1,0-0.1-0.1-0.2-0.2
		c0-0.1-0.1-0.2-0.1-0.3c0-0.1,0-0.2,0.1-0.3c0-0.1,0.1-0.1,0.2-0.2c0.1-0.1,0.1-0.1,0.2-0.1c0.1,0,0.2-0.1,0.3-0.1
		c0.1,0,0.2,0,0.3,0c0.1,0,0.2,0,0.3,0c0.1,0,0.2,0,0.3-0.1c0.1,0,0.1-0.1,0.2-0.1V27.9z"/>
	<rect x="79.9" y="23.4" class="st1" width="1.3" height="6.4"/>
	<path class="st1" d="M84.9,26v-0.8H84v-1.4h-1.3v1.4h-0.8V26h0.8v2.7c0,0.2,0,0.4,0.1,0.6c0.1,0.1,0.2,0.3,0.3,0.3
		c0.1,0.1,0.3,0.1,0.5,0.2c0.2,0,0.4,0,0.6,0c0.1,0,0.3,0,0.4,0c0.1,0,0.3,0,0.4,0v-1c-0.1,0-0.1,0-0.2,0c-0.1,0-0.1,0-0.2,0
		c-0.2,0-0.4,0-0.4-0.1C84,28.6,84,28.5,84,28.3V26H84.9z"/>
	<path class="st1" d="M85.7,23.4v6.4H87v-2.4c0-0.5,0.1-0.8,0.2-1c0.2-0.2,0.4-0.3,0.8-0.3c0.3,0,0.5,0.1,0.6,0.3
		c0.1,0.2,0.2,0.5,0.2,0.9v2.6h1.3v-2.8c0-0.3,0-0.5-0.1-0.8c-0.1-0.2-0.1-0.4-0.3-0.6c-0.1-0.2-0.3-0.3-0.5-0.4
		C89,25,88.7,25,88.4,25c-0.2,0-0.5,0.1-0.7,0.2c-0.2,0.1-0.5,0.3-0.6,0.6h0v-2.4H85.7z"/>
	<polygon class="st1" points="101,29.7 101,23.4 99,23.4 97.6,27.7 97.6,27.7 96.1,23.4 94.1,23.4 94.1,29.7 95.4,29.7 95.4,25.3 
		95.4,25.3 97,29.7 98.1,29.7 99.6,25.2 99.6,25.2 99.6,29.7 	"/>
	<path class="st1" d="M102.5,29.5c0.1,0.1,0.3,0.2,0.5,0.3c0.2,0.1,0.4,0.1,0.6,0.1c0.3,0,0.6,0,0.8-0.1c0.3-0.1,0.5-0.2,0.7-0.4
		c0,0.1,0,0.2,0,0.2c0,0.1,0,0.1,0.1,0.2h1.3c-0.1-0.1-0.1-0.2-0.1-0.4c0-0.2,0-0.4,0-0.6v-2.4c0-0.3-0.1-0.5-0.2-0.7
		c-0.1-0.2-0.3-0.3-0.5-0.4c-0.2-0.1-0.4-0.2-0.7-0.2c-0.2,0-0.5,0-0.7,0c-0.3,0-0.5,0-0.8,0.1c-0.3,0.1-0.5,0.1-0.7,0.3
		c-0.2,0.1-0.4,0.3-0.5,0.5c-0.1,0.2-0.2,0.4-0.2,0.7h1.3c0-0.3,0.1-0.4,0.3-0.5c0.1-0.1,0.3-0.2,0.6-0.2c0.1,0,0.2,0,0.3,0
		c0.1,0,0.2,0,0.3,0.1c0.1,0,0.1,0.1,0.2,0.2c0,0.1,0.1,0.2,0.1,0.3c0,0.1,0,0.2-0.1,0.3c-0.1,0.1-0.2,0.1-0.3,0.2
		c-0.1,0-0.3,0.1-0.5,0.1c-0.2,0-0.4,0-0.6,0.1c-0.2,0-0.4,0.1-0.6,0.1c-0.2,0.1-0.4,0.1-0.5,0.2c-0.1,0.1-0.3,0.2-0.4,0.4
		c-0.1,0.2-0.1,0.4-0.1,0.6c0,0.2,0,0.4,0.1,0.6C102.3,29.3,102.4,29.4,102.5,29.5z M103.4,28.1c0-0.1,0.1-0.1,0.2-0.2
		c0.1-0.1,0.1-0.1,0.2-0.1c0.1,0,0.2-0.1,0.3-0.1c0.1,0,0.2,0,0.3,0c0.1,0,0.2,0,0.3,0c0.1,0,0.2,0,0.3-0.1c0.1,0,0.1-0.1,0.2-0.1
		v0.5c0,0.1,0,0.2,0,0.3c0,0.1-0.1,0.2-0.1,0.4c-0.1,0.1-0.2,0.2-0.3,0.3c-0.1,0.1-0.3,0.1-0.6,0.1c-0.1,0-0.2,0-0.3,0
		c-0.1,0-0.2,0-0.3-0.1c-0.1,0-0.1-0.1-0.2-0.2c0-0.1-0.1-0.2-0.1-0.3C103.4,28.3,103.4,28.2,103.4,28.1z"/>
	<path class="st1" d="M112,29.7v-2.8c0-0.3,0-0.5-0.1-0.8c-0.1-0.2-0.1-0.4-0.3-0.6c-0.1-0.2-0.3-0.3-0.5-0.4
		c-0.2-0.1-0.5-0.1-0.8-0.1c-0.3,0-0.5,0.1-0.8,0.2c-0.3,0.1-0.5,0.3-0.6,0.6h0v-0.6h-1.2v4.6h1.3v-2.4c0-0.5,0.1-0.8,0.2-1
		c0.2-0.2,0.4-0.3,0.8-0.3c0.3,0,0.5,0.1,0.6,0.3c0.1,0.2,0.2,0.5,0.2,0.9v2.6H112z"/>
	<path class="st1" d="M113.8,25.3c-0.2,0.1-0.4,0.3-0.5,0.5c-0.1,0.2-0.2,0.4-0.2,0.7h1.3c0-0.3,0.1-0.4,0.3-0.5
		c0.1-0.1,0.3-0.2,0.6-0.2c0.1,0,0.2,0,0.3,0c0.1,0,0.2,0,0.3,0.1c0.1,0,0.1,0.1,0.2,0.2c0,0.1,0.1,0.2,0.1,0.3c0,0.1,0,0.2-0.1,0.3
		c-0.1,0.1-0.2,0.1-0.3,0.2c-0.1,0-0.3,0.1-0.5,0.1c-0.2,0-0.4,0-0.6,0.1c-0.2,0-0.4,0.1-0.6,0.1c-0.2,0.1-0.4,0.1-0.5,0.2
		c-0.1,0.1-0.3,0.2-0.4,0.4c-0.1,0.2-0.1,0.4-0.1,0.6c0,0.2,0,0.4,0.1,0.6c0.1,0.2,0.2,0.3,0.3,0.4c0.1,0.1,0.3,0.2,0.5,0.3
		c0.2,0.1,0.4,0.1,0.6,0.1c0.3,0,0.6,0,0.8-0.1c0.3-0.1,0.5-0.2,0.7-0.4c0,0.1,0,0.2,0,0.2c0,0.1,0,0.1,0.1,0.2h1.3
		c-0.1-0.1-0.1-0.2-0.1-0.4c0-0.2,0-0.4,0-0.6v-2.4c0-0.3-0.1-0.5-0.2-0.7c-0.1-0.2-0.3-0.3-0.5-0.4c-0.2-0.1-0.4-0.2-0.7-0.2
		c-0.2,0-0.5,0-0.7,0c-0.3,0-0.5,0-0.8,0.1C114.3,25.1,114,25.2,113.8,25.3z M116,27.9c0,0.1,0,0.2,0,0.3c0,0.1-0.1,0.2-0.1,0.4
		c-0.1,0.1-0.2,0.2-0.3,0.3c-0.1,0.1-0.3,0.1-0.6,0.1c-0.1,0-0.2,0-0.3,0c-0.1,0-0.2,0-0.2-0.1c-0.1,0-0.1-0.1-0.2-0.2
		c0-0.1-0.1-0.2-0.1-0.3c0-0.1,0-0.2,0.1-0.3c0-0.1,0.1-0.1,0.2-0.2c0.1-0.1,0.1-0.1,0.2-0.1c0.1,0,0.2-0.1,0.3-0.1
		c0.1,0,0.2,0,0.3,0c0.1,0,0.2,0,0.3,0c0.1,0,0.2,0,0.3-0.1c0.1,0,0.1-0.1,0.2-0.1V27.9z"/>
	<path class="st1" d="M121.5,30.3c-0.2,0.2-0.4,0.3-0.8,0.3c-0.2,0-0.4,0-0.6-0.1c-0.2-0.1-0.3-0.3-0.3-0.5h-1.3
		c0,0.3,0.1,0.5,0.2,0.7c0.1,0.2,0.3,0.3,0.5,0.5c0.2,0.1,0.4,0.2,0.6,0.3c0.2,0.1,0.5,0.1,0.7,0.1c0.5,0,1-0.1,1.3-0.2
		c0.3-0.1,0.6-0.3,0.7-0.5c0.2-0.2,0.3-0.4,0.3-0.7c0.1-0.2,0.1-0.4,0.1-0.6v-4.3h-1.2v0.6h0c-0.2-0.3-0.3-0.5-0.6-0.6
		c-0.2-0.1-0.5-0.2-0.8-0.2c-0.3,0-0.6,0.1-0.9,0.2c-0.2,0.1-0.5,0.3-0.6,0.5c-0.2,0.2-0.3,0.5-0.4,0.7c-0.1,0.3-0.1,0.6-0.1,0.9
		c0,0.3,0,0.6,0.1,0.9c0.1,0.3,0.2,0.5,0.4,0.7c0.2,0.2,0.4,0.4,0.6,0.5c0.2,0.1,0.5,0.2,0.9,0.2c0.3,0,0.5-0.1,0.8-0.2
		c0.3-0.1,0.4-0.3,0.6-0.5h0v0.6C121.8,29.8,121.7,30.1,121.5,30.3z M121.7,27.8c0,0.2-0.1,0.3-0.2,0.4c-0.1,0.1-0.2,0.2-0.3,0.3
		c-0.1,0.1-0.3,0.1-0.5,0.1c-0.2,0-0.4,0-0.5-0.1c-0.1-0.1-0.2-0.2-0.3-0.3c-0.1-0.1-0.1-0.3-0.2-0.4c0-0.2,0-0.3,0-0.5
		c0-0.2,0-0.3,0.1-0.5c0-0.2,0.1-0.3,0.2-0.4c0.1-0.1,0.2-0.2,0.3-0.3c0.1-0.1,0.3-0.1,0.5-0.1c0.2,0,0.4,0,0.5,0.1
		c0.1,0.1,0.2,0.2,0.3,0.3c0.1,0.1,0.1,0.3,0.2,0.5c0,0.2,0.1,0.4,0.1,0.5C121.8,27.5,121.7,27.7,121.7,27.8z"/>
	<path class="st1" d="M124.6,25.7c-0.2,0.2-0.4,0.5-0.5,0.8c-0.1,0.3-0.2,0.6-0.2,1c0,0.4,0.1,0.7,0.2,1c0.1,0.3,0.3,0.6,0.5,0.8
		c0.2,0.2,0.4,0.4,0.7,0.5c0.3,0.1,0.6,0.2,1,0.2c0.5,0,1-0.1,1.3-0.4c0.4-0.2,0.6-0.6,0.8-1.2h-1.1c0,0.1-0.2,0.3-0.3,0.4
		c-0.2,0.1-0.4,0.2-0.7,0.2c-0.4,0-0.6-0.1-0.8-0.3c-0.2-0.2-0.3-0.5-0.3-0.9h3.3c0-0.4,0-0.7-0.1-1c-0.1-0.3-0.2-0.6-0.4-0.9
		c-0.2-0.3-0.4-0.5-0.7-0.6c-0.3-0.2-0.6-0.2-1-0.2c-0.4,0-0.7,0.1-1,0.2C125.1,25.3,124.8,25.5,124.6,25.7z M125.8,26
		c0.1-0.1,0.3-0.1,0.5-0.1c0.3,0,0.5,0.1,0.7,0.3c0.2,0.2,0.3,0.4,0.3,0.7h-2.1c0-0.1,0-0.2,0.1-0.3c0-0.1,0.1-0.2,0.2-0.3
		C125.6,26.2,125.7,26.1,125.8,26z"/>
	<path class="st1" d="M135.6,25.1c-0.2-0.1-0.4-0.1-0.7-0.1c-0.3,0-0.6,0.1-0.8,0.2c-0.2,0.2-0.4,0.3-0.6,0.5
		c-0.1-0.3-0.3-0.5-0.6-0.6c-0.2-0.1-0.5-0.2-0.8-0.2c-0.3,0-0.6,0.1-0.8,0.2c-0.2,0.1-0.4,0.3-0.6,0.6h0v-0.6h-1.2v4.6h1.3v-2.7
		c0-0.2,0-0.4,0.1-0.6c0.1-0.1,0.1-0.2,0.2-0.3c0.1-0.1,0.2-0.1,0.3-0.2c0.1,0,0.2,0,0.2,0c0.2,0,0.4,0,0.5,0.1
		c0.1,0.1,0.2,0.2,0.2,0.3c0,0.1,0.1,0.2,0.1,0.4c0,0.1,0,0.3,0,0.4v2.6h1.3v-2.6c0-0.1,0-0.3,0-0.4c0-0.1,0.1-0.3,0.1-0.4
		c0.1-0.1,0.1-0.2,0.3-0.3c0.1-0.1,0.3-0.1,0.4-0.1c0.2,0,0.3,0,0.4,0.1c0.1,0.1,0.2,0.1,0.2,0.2c0.1,0.1,0.1,0.2,0.1,0.4
		c0,0.1,0,0.3,0,0.4v2.6h1.3v-3.1c0-0.3,0-0.6-0.1-0.8c-0.1-0.2-0.2-0.4-0.3-0.5C136,25.2,135.9,25.1,135.6,25.1z"/>
	<path class="st1" d="M138.3,29.2c0.2,0.2,0.4,0.4,0.7,0.5c0.3,0.1,0.6,0.2,1,0.2c0.5,0,1-0.1,1.3-0.4c0.4-0.2,0.6-0.6,0.8-1.2h-1.1
		c0,0.1-0.2,0.3-0.3,0.4c-0.2,0.1-0.4,0.2-0.7,0.2c-0.4,0-0.6-0.1-0.8-0.3c-0.2-0.2-0.3-0.5-0.3-0.9h3.3c0-0.4,0-0.7-0.1-1
		c-0.1-0.3-0.2-0.6-0.4-0.9c-0.2-0.3-0.4-0.5-0.7-0.6c-0.3-0.2-0.6-0.2-1-0.2c-0.4,0-0.7,0.1-1,0.2c-0.3,0.1-0.5,0.3-0.7,0.5
		c-0.2,0.2-0.4,0.5-0.5,0.8c-0.1,0.3-0.2,0.6-0.2,1c0,0.4,0.1,0.7,0.2,1C137.9,28.7,138.1,29,138.3,29.2z M139,26.6
		c0-0.1,0.1-0.2,0.2-0.3c0.1-0.1,0.2-0.2,0.3-0.3c0.1-0.1,0.3-0.1,0.5-0.1c0.3,0,0.5,0.1,0.7,0.3c0.2,0.2,0.3,0.4,0.3,0.7h-2.1
		C138.9,26.8,138.9,26.7,139,26.6z"/>
	<path class="st1" d="M147.6,29.7v-2.8c0-0.3,0-0.5-0.1-0.8c-0.1-0.2-0.1-0.4-0.3-0.6c-0.1-0.2-0.3-0.3-0.5-0.4
		c-0.2-0.1-0.5-0.1-0.8-0.1c-0.3,0-0.5,0.1-0.8,0.2c-0.3,0.1-0.5,0.3-0.6,0.6h0v-0.6h-1.2v4.6h1.3v-2.4c0-0.5,0.1-0.8,0.2-1
		c0.2-0.2,0.4-0.3,0.8-0.3c0.3,0,0.5,0.1,0.6,0.3c0.1,0.2,0.2,0.5,0.2,0.9v2.6H147.6z"/>
	<path class="st1" d="M151.3,26v-0.8h-0.9v-1.4h-1.3v1.4h-0.8V26h0.8v2.7c0,0.2,0,0.4,0.1,0.6c0.1,0.1,0.2,0.3,0.3,0.3
		c0.1,0.1,0.3,0.1,0.5,0.2c0.2,0,0.4,0,0.6,0c0.1,0,0.3,0,0.4,0c0.1,0,0.3,0,0.4,0v-1c-0.1,0-0.1,0-0.2,0c-0.1,0-0.1,0-0.2,0
		c-0.2,0-0.4,0-0.4-0.1c-0.1-0.1-0.1-0.2-0.1-0.4V26H151.3z"/>
	<path class="st1" d="M155.5,28.9c0.3,0.3,0.6,0.5,1,0.7c0.4,0.2,0.8,0.3,1.3,0.3c0.4,0,0.8-0.1,1.1-0.2c0.3-0.1,0.6-0.3,0.9-0.5
		c0.2-0.2,0.4-0.5,0.6-0.8c0.1-0.3,0.2-0.7,0.3-1.1h-1.4c-0.1,0.4-0.2,0.8-0.4,1c-0.2,0.3-0.6,0.4-1,0.4c-0.3,0-0.6-0.1-0.8-0.2
		c-0.2-0.1-0.4-0.3-0.5-0.5c-0.1-0.2-0.2-0.4-0.3-0.7c-0.1-0.3-0.1-0.5-0.1-0.8c0-0.3,0-0.6,0.1-0.8c0.1-0.3,0.2-0.5,0.3-0.7
		c0.1-0.2,0.3-0.4,0.5-0.5c0.2-0.1,0.5-0.2,0.8-0.2c0.2,0,0.3,0,0.5,0.1c0.2,0.1,0.3,0.1,0.4,0.2c0.1,0.1,0.2,0.2,0.3,0.4
		c0.1,0.1,0.1,0.3,0.2,0.4h1.4c0-0.4-0.1-0.7-0.3-1c-0.2-0.3-0.4-0.5-0.6-0.7c-0.2-0.2-0.5-0.3-0.8-0.4c-0.3-0.1-0.6-0.2-1-0.2
		c-0.5,0-0.9,0.1-1.3,0.3c-0.4,0.2-0.7,0.4-1,0.7c-0.3,0.3-0.5,0.7-0.6,1.1c-0.1,0.4-0.2,0.9-0.2,1.3c0,0.5,0.1,0.9,0.2,1.3
		C155,28.3,155.3,28.6,155.5,28.9z"/>
	<path class="st1" d="M162.1,29.2c0.2,0.2,0.4,0.4,0.7,0.5c0.3,0.1,0.6,0.2,1,0.2c0.5,0,1-0.1,1.3-0.4c0.4-0.2,0.6-0.6,0.8-1.2h-1.1
		c0,0.1-0.2,0.3-0.3,0.4c-0.2,0.1-0.4,0.2-0.7,0.2c-0.4,0-0.6-0.1-0.8-0.3c-0.2-0.2-0.3-0.5-0.3-0.9h3.3c0-0.4,0-0.7-0.1-1
		c-0.1-0.3-0.2-0.6-0.4-0.9c-0.2-0.3-0.4-0.5-0.7-0.6c-0.3-0.2-0.6-0.2-1-0.2c-0.4,0-0.7,0.1-1,0.2c-0.3,0.1-0.5,0.3-0.7,0.5
		c-0.2,0.2-0.4,0.5-0.5,0.8c-0.1,0.3-0.2,0.6-0.2,1c0,0.4,0.1,0.7,0.2,1C161.7,28.7,161.9,29,162.1,29.2z M162.8,26.6
		c0-0.1,0.1-0.2,0.2-0.3c0.1-0.1,0.2-0.2,0.3-0.3c0.1-0.1,0.3-0.1,0.5-0.1c0.3,0,0.5,0.1,0.7,0.3c0.2,0.2,0.3,0.4,0.3,0.7h-2.1
		C162.7,26.8,162.8,26.7,162.8,26.6z"/>
	<path class="st1" d="M168.3,27.3c0-0.5,0.1-0.8,0.2-1c0.2-0.2,0.4-0.3,0.8-0.3c0.3,0,0.5,0.1,0.6,0.3c0.1,0.2,0.2,0.5,0.2,0.9v2.6
		h1.3v-2.8c0-0.3,0-0.5-0.1-0.8c-0.1-0.2-0.1-0.4-0.3-0.6c-0.1-0.2-0.3-0.3-0.5-0.4c-0.2-0.1-0.5-0.1-0.8-0.1
		c-0.3,0-0.5,0.1-0.8,0.2c-0.3,0.1-0.5,0.3-0.6,0.6h0v-0.6H167v4.6h1.3V27.3z"/>
	<path class="st1" d="M172.9,28.7c0,0.2,0,0.4,0.1,0.6c0.1,0.1,0.2,0.3,0.3,0.3c0.1,0.1,0.3,0.1,0.5,0.2c0.2,0,0.4,0,0.6,0
		c0.1,0,0.3,0,0.4,0c0.1,0,0.3,0,0.4,0v-1c-0.1,0-0.1,0-0.2,0c-0.1,0-0.1,0-0.2,0c-0.2,0-0.4,0-0.4-0.1c-0.1-0.1-0.1-0.2-0.1-0.4V26
		h0.9v-0.8h-0.9v-1.4h-1.3v1.4h-0.8V26h0.8V28.7z"/>
	<path class="st1" d="M176.3,29.2c0.2,0.2,0.4,0.4,0.7,0.5c0.3,0.1,0.6,0.2,1,0.2c0.5,0,1-0.1,1.3-0.4c0.4-0.2,0.6-0.6,0.8-1.2h-1.1
		c0,0.1-0.2,0.3-0.3,0.4c-0.2,0.1-0.4,0.2-0.7,0.2c-0.4,0-0.6-0.1-0.8-0.3c-0.2-0.2-0.3-0.5-0.3-0.9h3.3c0-0.4,0-0.7-0.1-1
		c-0.1-0.3-0.2-0.6-0.4-0.9c-0.2-0.3-0.4-0.5-0.7-0.6c-0.3-0.2-0.6-0.2-1-0.2c-0.4,0-0.7,0.1-1,0.2c-0.3,0.1-0.5,0.3-0.7,0.5
		c-0.2,0.2-0.4,0.5-0.5,0.8c-0.1,0.3-0.2,0.6-0.2,1c0,0.4,0.1,0.7,0.2,1C176,28.7,176.1,29,176.3,29.2z M177,26.6
		c0-0.1,0.1-0.2,0.2-0.3c0.1-0.1,0.2-0.2,0.3-0.3c0.1-0.1,0.3-0.1,0.5-0.1c0.3,0,0.5,0.1,0.7,0.3c0.2,0.2,0.3,0.4,0.3,0.7H177
		C177,26.8,177,26.7,177,26.6z"/>
	<path class="st1" d="M182.6,27.7c0-0.2,0-0.4,0.1-0.6c0-0.2,0.1-0.3,0.2-0.5c0.1-0.1,0.2-0.2,0.4-0.3c0.2-0.1,0.4-0.1,0.6-0.1
		c0.1,0,0.2,0,0.2,0c0.1,0,0.2,0,0.2,0V25c-0.1,0-0.2,0-0.3,0c-0.2,0-0.3,0-0.5,0.1c-0.1,0-0.3,0.1-0.4,0.2
		c-0.1,0.1-0.2,0.2-0.3,0.3c-0.1,0.1-0.2,0.3-0.2,0.4h0v-0.9h-1.2v4.6h1.3V27.7z"/>
	<path class="st1" d="M45.7,14.5h-7.6V5.3c0-2.9-2.4-5.3-5.3-5.3H18.1c-2.9,0-5.3,2.4-5.3,5.3V13h3.4V5.3c0-1,0.8-1.9,1.9-1.9h14.8
		c1,0,1.9,0.8,1.9,1.9v12.6h11c1,0,1.9,0.8,1.9,1.9v11.5c0,1-0.8,1.9-1.9,1.9h-2.2v3.4h2.2c2.9,0,5.3-2.4,5.3-5.3V19.7
		C50.9,16.8,48.6,14.5,45.7,14.5z"/>
	<path class="st1" d="M36.4,29.6c-2.9,0-5.2,2.3-5.2,5.2c0,2.3,1.5,4.2,3.5,4.9v5.9c0,1-0.8,1.9-1.9,1.9H18.1c-1,0-1.9-0.8-1.9-1.9
		v-7.6l8.3-3.1c2.6-1,4.4-3.5,4.4-6.3v-9c0-2.9-2.3-5.2-5.2-5.2h-2.2v3.3h2.2c1,0,1.9,0.9,1.9,1.9v9c0,1.4-0.9,2.7-2.2,3.2l-8.9,3.3
		l-8.9-3.3c-1.3-0.5-2.2-1.8-2.2-3.2v-9c0-1,0.9-1.9,1.9-1.9h2.2v-3.3H5.2c-2.9,0-5.2,2.3-5.2,5.2v9c0,2.8,1.8,5.3,4.4,6.3l8.4,3.1
		v7.6c0,2.9,2.4,5.3,5.3,5.3h14.8c2.9,0,5.3-2.4,5.3-5.3v-5.9c2.1-0.7,3.5-2.6,3.5-4.9C41.6,32,39.3,29.6,36.4,29.6z M36.4,36.9
		c-1.1,0-2-0.9-2-2c0-1.1,0.9-2,2-2c1.1,0,2,0.9,2,2C38.4,36,37.5,36.9,36.4,36.9z"/>
	<path class="st1" d="M66.5,45h2.8v-0.8h-2.8v-0.6c1-0.1,1.9-0.2,2.9-0.3L69,42.6c-1.5,0.2-3.6,0.4-6.1,0.5l0.3,0.7
		c0.9,0,1.7-0.1,2.6-0.1v0.5h-2.8V45h2.8v0.5h-3.3v0.8h7.5v-0.8h-3.3V45z"/>
	<path class="st1" d="M62.4,42l0.1,0.8c1-0.1,2-0.2,2.8-0.4v0.3h0.8v-3.3h0.4v-0.8h-4.1v0.8H63V42C62.8,42,62.6,42,62.4,42z
		 M63.8,39.4h1.5v0.4h-1.5V39.4z M63.8,40.4h1.5v0.4h-1.5V40.4z M63.8,41.4h1.5v0.3c-0.5,0.1-1,0.1-1.5,0.2V41.4z"/>
	<path class="st1" d="M69.4,38.9h-2.6v3.5h2.6V38.9z M68.6,41.6h-0.9v-1.9h0.9V41.6z"/>
	<path class="st1" d="M79.9,39.7v-0.7h-2c0.1-0.2,0.1-0.3,0.2-0.5l-0.9-0.2c-0.3,0.8-0.7,1.5-1.4,2v-1.7H73v3h1.2v3.5l-0.4,0.1v-2.8
		h-0.8v3c-0.1,0-0.3,0.1-0.4,0.1l0.3,0.9c1.2-0.3,2.2-0.6,3.1-0.9v-0.9c-0.3,0.1-0.6,0.2-1,0.3v-1.3h0.8v-0.8H75v-1.1h0.8v-1
		l0.5,0.6c0.2-0.2,0.4-0.4,0.6-0.6c0.2,0.3,0.4,0.6,0.6,0.9c-0.5,0.4-1.2,0.7-1.9,1l0.5,0.7c0.1,0,0.2-0.1,0.3-0.1v3.3h0.9v-0.3h1.8
		v0.3h0.9v-3.3c0.1,0,0.2,0.1,0.3,0.1l0.5-0.7c-0.7-0.2-1.4-0.5-1.9-1C79.3,41,79.7,40.4,79.9,39.7z M75,40.8h-1.1v-1.3H75V40.8z
		 M77.4,40l0.1-0.1H79c-0.2,0.4-0.5,0.7-0.8,1.1C77.9,40.7,77.7,40.3,77.4,40z M79.1,45.3h-1.8v-1.4h1.8V45.3z M79.8,43.1h-3.3
		c0.6-0.3,1.2-0.6,1.6-1C78.6,42.5,79.2,42.8,79.8,43.1z"/>
	<path class="st1" d="M85.2,38.5h-0.9v1.2h-1.3v0.9h1.3c0,2.3-0.5,4.3-1.5,5.4l0.7,0.6c1.1-1.2,1.6-3.5,1.7-6h0.8
		c0,2.3,0,4.1-0.1,4.5c-0.1,0.4-0.3,0.6-0.6,0.6c-0.2,0-0.5,0-0.8-0.1l0.2,0.8c0.3,0,0.5,0.1,0.7,0.1c0.8,0,1.2-0.3,1.3-1
		c0.1-0.7,0.1-2.9,0.1-5.8h-1.7V38.5z"/>
	<path class="st1" d="M87.6,46.3h0.9v-0.5h1.3v0.5h0.9v-7.1h-3V46.3z M88.4,40h1.3v4.9h-1.3V40z"/>
	<path class="st1" d="M97.5,45.2c-0.3-0.1-0.5-0.3-0.8-0.5c0.3-0.7,0.4-1.6,0.5-2.6v-0.5h-1c0.3-0.5,0.6-1,0.9-1.6v-0.7h-1.8
		l0.1-0.4l-0.8-0.4c-0.3,1.3-0.8,2.4-1.4,3.3l0.3,1c0.2-0.2,0.3-0.4,0.5-0.7v4.4h0.9v-6c0.2-0.4,0.3-0.8,0.4-1.2V40h0.9
		c-0.3,0.6-0.6,1.1-1,1.6v0.6h1.2c0,0.6-0.1,1.1-0.3,1.6c-0.2-0.4-0.4-0.8-0.5-1.2L95,42.9c0.2,0.7,0.5,1.3,0.8,1.8
		c-0.2,0.4-0.5,0.7-0.9,0.9l0.4,0.8c0.4-0.3,0.7-0.6,1-1c0.2,0.2,0.4,0.3,0.6,0.4c0.6,0.3,1.6,0.5,3.2,0.5h1l0.2-0.8
		c-0.6,0-1.2,0-1.7,0C98.7,45.5,98,45.4,97.5,45.2z"/>
	<path class="st1" d="M97.2,40.3V41h1.3v0.5h-1v0.7h1v0.5h-1v0.7h1v0.4h-1.3v0.7h1.3v0.7h0.9v-0.7h1.8v-0.7h-1.8v-0.4h1.6v-0.7h-1.6
		v-0.5h1.5V41h0.5v-0.7h-0.5v-1.2h-1.5v-0.6h-0.9v0.6h-1v0.7h1v0.5H97.2z M99.4,39.8h0.7v0.5h-0.7V39.8z M99.4,41h0.7v0.5h-0.7V41z"
		/>
	<path class="st1" d="M111.2,43.8l-0.6-0.6c-0.3,0.4-0.7,0.7-1.1,1c-0.3-0.2-0.5-0.4-0.7-0.6v-0.4h2.1v-1.2h0.8v-0.7h-0.8v-1.2h-2.1
		v-0.4h2.8v-0.8h-2.9c-0.1-0.2-0.2-0.4-0.2-0.6l-0.9,0.2c0.1,0.1,0.2,0.3,0.2,0.4h-3.2v2.9c0,1.7-0.2,3-0.7,4l0.7,0.6
		c0.5-1.1,0.8-2.5,0.9-4.3h2.6v0.4h-2.1v0.7h2.1V44c-0.3,0.2-0.7,0.4-1.1,0.6l0.4-0.5c-0.3-0.2-0.7-0.4-1.1-0.6l-0.4,0.6
		c0.4,0.1,0.7,0.3,1.1,0.6c-0.5,0.2-1,0.4-1.5,0.6l0.3,0.8c0.9-0.4,1.7-0.8,2.4-1.2v0.5c0,0.2-0.1,0.3-0.3,0.3c-0.3,0-0.5,0-0.8-0.1
		l0.2,0.8h0.9c0.6,0,0.8-0.3,0.8-0.8v-1c0.7,0.7,1.6,1.2,2.5,1.6l0.5-0.8c-0.6-0.2-1.2-0.5-1.6-0.7
		C110.5,44.4,110.8,44.2,111.2,43.8z M108.7,40.9h1.2v0.4h-1.2V40.9z M108.7,42.1h1.2v0.4h-1.2V42.1z M107.9,40.2h-2v0.7h2v0.4h-2.6
		v-1.6h2.6V40.2z"/>
	<path class="st1" d="M115.2,38.4c-0.2,0.6-0.5,1.2-1,1.7l0.8,0.5c0.2-0.3,0.4-0.5,0.6-0.9h0.3c0.2,0.3,0.4,0.6,0.5,0.9l0.8-0.3
		c-0.1-0.2-0.2-0.4-0.4-0.6h1.2V39H116c0.1-0.1,0.1-0.3,0.1-0.4L115.2,38.4z"/>
	<path class="st1" d="M119.8,38.6l-0.9-0.2c-0.2,0.6-0.5,1.1-0.9,1.7l0.2,0.1l-0.8,0.1c0.1,0.1,0.1,0.3,0.2,0.4h-3.3v1.7h0.9v-0.9
		h5.7v0.9h0.9v-1.7h-3.3c-0.1-0.2-0.1-0.3-0.2-0.4l0.4,0.3c0.2-0.2,0.3-0.5,0.5-0.8h0.4c0.2,0.3,0.3,0.5,0.5,0.8l0.8-0.3
		c-0.1-0.2-0.2-0.3-0.3-0.5h1.4V39h-2.4C119.7,38.8,119.7,38.7,119.8,38.6z"/>
	<path class="st1" d="M116.5,43.7h4.2v-1.9h-5.1v4.6h0.9v-0.3h3.7v0.3h0.9v-2.4h-4.6V43.7z M116.5,42.5h3.3V43h-3.3V42.5z
		 M120.2,44.8v0.6h-3.7v-0.6H120.2z"/>
	<path class="st1" d="M127.2,44.1c-0.3,0.1-0.5,0.2-0.8,0.3v-2h0.8v-0.9h-0.8v-1.8h0.9v-0.9h-2.8v0.9h1v1.8h-0.8v0.9h0.8v2.3
		c-0.3,0.1-0.7,0.2-1,0.2l0.2,0.9c0.9-0.2,1.7-0.5,2.5-0.8V44.1z"/>
	<path class="st1" d="M130.3,44.5h1.9v-0.8h-1.9v-0.8h1.8v-4.2h-4.4v4.2h1.8v0.8h-1.9v0.8h1.9v0.8h-2.2v0.9h5.3v-0.9h-2.2V44.5z
		 M130.3,39.5h0.9v0.9h-0.9V39.5z M130.3,41.2h0.9v0.9h-0.9V41.2z M129.4,42.1h-0.9v-0.9h0.9V42.1z M129.4,40.4h-0.9v-0.9h0.9V40.4z
		"/>
	<path class="st1" d="M139.3,38.4h-0.9v1.3h-3.1v4.7h0.9v-0.5h2.2v2.6h0.9v-2.6h2.2v0.5h0.9v-4.7h-3.1V38.4z M138.3,43h-2.2v-2.4
		h2.2V43z M141.4,40.6V43h-2.2v-2.4H141.4z"/>
	<path class="st1" d="M150.4,40.7c-0.4-0.7-1-1.4-1.7-2.3l-0.7,0.5c0.7,0.9,1.3,1.7,1.7,2.4L150.4,40.7z"/>
	<path class="st1" d="M150.3,45c-0.1,0.2-0.2,0.3-0.3,0.3h-1.5c-0.3,0-0.4-0.1-0.4-0.4v-4.7h-0.9v4.9c0,0.7,0.3,1,1.1,1h1.9
		c0.4,0,0.6-0.1,0.8-0.3c0.2-0.2,0.3-1,0.4-2.2l-0.9-0.3C150.5,44.3,150.4,44.8,150.3,45z"/>
	<path class="st1" d="M150.9,41.1c0.5,1.1,0.9,2.4,1.3,3.8l0.8-0.4c-0.4-1.3-0.8-2.6-1.3-3.7L150.9,41.1z"/>
	<path class="st1" d="M144.9,44.8l0.8,0.5c0.4-1.1,0.8-2.5,1-4.1l-0.9-0.2C145.7,42.4,145.4,43.6,144.9,44.8z"/>
	<polygon class="st1" points="77.1,20.3 79.5,20.3 79.5,11.2 83.8,11.2 83.8,9 79.5,9 79.5,4.8 77.1,4.8 77.1,9 72.8,9 72.8,11.2 
		77.1,11.2 	"/>
	<path class="st1" d="M83.1,19.2c0,0.4,0.1,0.7,0.4,1c0.3,0.3,0.6,0.4,1,0.4c0.4,0,0.7-0.1,1-0.4c0.3-0.3,0.4-0.6,0.4-1
		c0-0.4-0.1-0.7-0.4-1c-0.3-0.3-0.6-0.4-1-0.4c-0.4,0-0.7,0.1-1,0.4C83.3,18.5,83.1,18.8,83.1,19.2z"/>
	<polygon class="st1" points="101.6,18 95,18 95,4.8 92.6,4.8 92.6,20.2 101.6,20.2 	"/>
	<path class="st1" d="M109.4,20.5c1.7,0,3.1-0.6,4.2-1.8c1-1.1,1.5-2.4,1.5-4v-10h-2.3v9.3c0,1.3-0.2,2.3-0.7,2.9
		c-0.6,0.9-1.6,1.3-2.7,1.3c-1.2,0-2.1-0.4-2.7-1.3c-0.4-0.6-0.7-1.6-0.7-2.9V4.8h-2.3v10c0,1.6,0.5,3,1.5,4
		C106.3,19.9,107.7,20.5,109.4,20.5z"/>
	<polygon class="st1" points="136.2,18 129.8,18 129.8,12.9 136,12.9 136,10.7 129.8,10.7 129.8,7 136.2,7 136.2,4.8 127.5,4.8 
		127.5,20.2 136.2,20.2 	"/>
	<polygon class="st1" points="143.4,4.9 141.4,4.1 139.1,10 140.6,10.6 	"/>
	<path class="st1" d="M149.2,18.3c-0.9,0-1.6-0.3-2.1-1c-0.3-0.3-0.5-1-0.6-1.9l-2.4,0.5c0.2,1.4,0.8,2.6,1.6,3.4
		c0.9,0.8,2,1.2,3.3,1.2c1.4,0,2.6-0.5,3.6-1.4c0.9-0.9,1.4-2.1,1.4-3.5c0-1.1-0.3-2-0.9-2.7c-0.6-0.7-1.5-1.4-2.8-1.9l-1.5-0.6
		c-1.1-0.5-1.7-1.1-1.7-1.8c0-0.5,0.2-1,0.6-1.4c0.4-0.4,1-0.6,1.6-0.6c0.5,0,1,0.1,1.3,0.3c0.3,0.2,0.7,0.6,1,1.2l1.9-1.1
		c-1-1.7-2.4-2.6-4.2-2.6c-1.3,0-2.4,0.4-3.3,1.2c-0.9,0.8-1.3,1.8-1.3,2.9c0,1.7,1.1,3,3.2,3.9l1.5,0.6c0.4,0.2,0.7,0.3,1,0.5
		c0.3,0.2,0.5,0.4,0.7,0.6c0.2,0.2,0.3,0.4,0.4,0.7c0.1,0.3,0.1,0.5,0.1,0.8c0,0.7-0.2,1.4-0.7,1.9
		C150.5,18.1,149.9,18.3,149.2,18.3z"/>
	<polygon class="st1" points="125.5,20.2 118.8,11.8 125.4,4.8 122.3,4.8 115.9,11.8 122.3,20.2 	"/>
	<path class="st1" d="M66.8,18.3c-0.9,0-1.6-0.3-2.1-1c-0.3-0.3-0.5-1-0.6-1.9l-2.4,0.5c0.2,1.4,0.8,2.6,1.6,3.4
		c0.9,0.8,2,1.2,3.3,1.2c1.4,0,2.6-0.5,3.6-1.4c0.9-0.9,1.4-2.1,1.4-3.5c0-1.1-0.3-2-0.9-2.7c-0.6-0.7-1.5-1.4-2.8-1.9l-1.5-0.6
		c-1.1-0.5-1.7-1.1-1.7-1.8c0-0.5,0.2-1,0.6-1.4c0.4-0.4,1-0.6,1.6-0.6c0.5,0,1,0.1,1.3,0.3c0.3,0.2,0.7,0.6,1,1.2l1.9-1.1
		c-1-1.7-2.4-2.6-4.2-2.6c-1.3,0-2.4,0.4-3.3,1.2c-0.9,0.8-1.3,1.8-1.3,2.9c0,1.7,1.1,3,3.2,3.9l1.5,0.6c0.4,0.2,0.7,0.3,1,0.5
		c0.3,0.2,0.5,0.4,0.7,0.6c0.2,0.2,0.3,0.4,0.4,0.7c0.1,0.3,0.1,0.5,0.1,0.8c0,0.7-0.2,1.4-0.7,1.9C68.1,18.1,67.5,18.3,66.8,18.3z"
		/>
	<rect x="61.9" y="34.1" class="st1" width="122.4" height="0.6"/>
</g>
</svg>
